<?xml version="1.0" encoding="utf-8"?>
<!-- Generator: Adobe Illustrator 20.1.0, SVG Export Plug-In . SVG Version: 6.00 Build 0)  -->
<svg version="1.1" id="Слой_1" xmlns="http://www.w3.org/2000/svg" xmlns:xlink="http://www.w3.org/1999/xlink" x="0px" y="0px"
	 viewBox="127.2 389.8 612 130.6" style="enable-background:new 127.2 389.8 612 130.6;" xml:space="preserve">
<style type="text/css">
	.st0{fill:#2D3492;}
	.st1{fill:#ED1E25;}
</style>
<g>
	<g>
		<path class="st0" d="M405,485.5l2.1-2.2c-1.1-1.5-1.4-3.8-0.8-6.3c1.3-5.4,5.5-8.9,10-8.9c1.6,0,2.9,0.5,4,1.3l2-2.1l1.1,0.9
			l-2.1,2.2c1.1,1.5,1.3,3.8,0.7,6.3c-1.4,5.9-5.8,9-9.9,9c-1.6,0-3-0.5-4-1.4l-2.1,2.2L405,485.5z M418.8,471
			c-0.7-0.7-1.6-1.2-2.9-1.2c-3.7,0-6.4,3.4-7.3,7c-0.4,1.9-0.3,3.3,0.2,4.6l0,0L418.8,471z M409.6,482.7c0.7,0.8,1.5,1.2,2.9,1.2
			c3.6,0,6.3-3.3,7.2-7.1c0.3-1.4,0.4-3-0.2-4.4h-0.1L409.6,482.7z"/>
		<path class="st0" d="M437.2,478.8L437.2,478.8c0.5-0.4,1-1,1.5-1.4l4.6-4.2h2.7l-5.9,5l3.7,7.2H441l-2.9-5.9l-1.4,1.3l-1.1,4.6
			h-2.2l4.2-18h2.2L437.2,478.8z"/>
		<path class="st0" d="M462.4,469.6l-0.8,3.5h3.2l-0.4,1.7h-3.2l-1.6,6.6c-0.4,1.5-0.1,2.4,1.1,2.4c0.6,0,1-0.1,1.3-0.1l-0.3,1.7
			c-0.5,0.2-1.2,0.3-2.1,0.3c-1,0-1.8-0.3-2.2-0.9c-0.5-0.7-0.4-1.7-0.1-3.2l1.6-6.7h-1.9l0.4-1.7h1.9l0.7-2.9L462.4,469.6z"/>
		<path class="st0" d="M495.2,468.3h2.2l-3.6,15.2h7.3l-0.4,1.8h-9.5L495.2,468.3z"/>
		<path class="st0" d="M519.9,469.7c-0.2,0.8-0.9,1.4-1.7,1.4c-0.8,0-1.2-0.6-1-1.4c0.2-0.8,0.9-1.4,1.7-1.4
			C519.7,468.3,520.1,468.9,519.9,469.7z M513.7,485.4l2.9-12.2h2.2l-2.9,12.2H513.7z"/>
		<path class="st0" d="M534,473.1l0.8,6.9c0.1,1.1,0.2,2.1,0.3,3.1h0.1c0.5-1,1.1-2,1.8-3.1l4-6.9h2.3l-7.7,12.2h-2.1l-1.8-12.2
			L534,473.1L534,473.1z"/>
		<path class="st0" d="M553.2,483.1c0.6,0.4,1.6,0.9,2.7,0.9c1.6,0,2.6-0.8,2.8-1.8c0.3-1.1-0.2-1.6-1.7-2.3c-2-0.8-2.8-2-2.4-3.5
			c0.5-2,2.4-3.6,5.1-3.6c1.2,0,2.2,0.4,2.8,0.8l-0.9,1.6c-0.4-0.3-1.2-0.7-2.4-0.7c-1.3,0-2.2,0.8-2.4,1.7c-0.2,1,0.4,1.5,1.8,2.1
			c1.9,0.8,2.8,1.9,2.4,3.7c-0.5,2.1-2.5,3.7-5.5,3.7c-1.4,0-2.5-0.3-3.3-0.8L553.2,483.1z"/>
		<path class="st0" d="M577.5,478.8L577.5,478.8c0.5-0.4,1-1,1.5-1.4l4.6-4.2h2.7l-5.9,5l3.7,7.2h-2.7l-2.9-5.9l-1.4,1.3l-1.1,4.6
			h-2.2l4.2-18h2.2L577.5,478.8z"/>
		<path class="st0" d="M598.7,477c0.3-1.4,0.6-2.7,0.8-3.8h2l-0.5,2.4h0.1c0.9-1.6,2.5-2.7,4-2.7c0.3,0,0.4,0,0.6,0.1l-0.5,2.1
			c-0.2-0.1-0.4-0.1-0.7-0.1c-1.6,0-3,1.2-3.7,2.9c-0.1,0.3-0.2,0.7-0.3,1l-1.5,6.5h-2.2L598.7,477z"/>
		<path class="st0" d="M622.3,485.4l0.2-1.5h-0.1c-0.9,1-2.4,1.8-4.2,1.8c-2.5,0-3.4-1.7-2.9-3.5c0.7-3,3.7-4.6,8.5-4.6l0.1-0.2
			c0.2-1,0.4-2.8-2.1-2.8c-1.1,0-2.4,0.3-3.4,0.9l-0.2-1.5c1.2-0.7,2.7-1.1,4.3-1.1c3.8,0,4.1,2.5,3.5,5l-1.1,4.6
			c-0.3,1.1-0.4,2.1-0.5,2.9L622.3,485.4L622.3,485.4z M623.5,479.2c-2.4,0-5.3,0.4-5.9,2.8c-0.3,1.4,0.5,2.1,1.6,2.1
			c1.6,0,2.9-1,3.5-2.1c0.1-0.2,0.3-0.5,0.3-0.7L623.5,479.2z"/>
		<path class="st0" d="M638.7,485.4l2.5-10.6h-1.7l0.4-1.7h1.7l0.1-0.6c0.4-1.7,1.2-3.3,2.4-4.3c1-0.8,2.2-1.1,3.3-1.1
			c0.8,0,1.4,0.2,1.8,0.3l-0.7,1.7c-0.3-0.2-0.7-0.3-1.3-0.3c-1.9,0-2.8,1.7-3.2,3.5l-0.2,0.7h3l-0.4,1.7h-3l-2.5,10.6L638.7,485.4
			L638.7,485.4z"/>
		<path class="st0" d="M663.2,469.6l-0.8,3.5h3.2l-0.4,1.7H662l-1.6,6.6c-0.4,1.5-0.1,2.4,1.1,2.4c0.6,0,1-0.1,1.3-0.1l-0.3,1.7
			c-0.5,0.2-1.2,0.3-2,0.3c-1,0-1.8-0.3-2.2-0.9c-0.5-0.7-0.5-1.7-0.1-3.2l1.6-6.7h-1.9l0.4-1.7h1.9l0.7-2.9L663.2,469.6z"/>
	</g>
	<path class="st0" d="M302.1,433.4c0,0-33-5.8-76.4-2.7c5.4-24.5,10.8-40.8,10.8-40.8h-21.7c0,0-5.8,17.2-8.5,42.8
		c-25.4,3.3-53.1,10-79.2,22.5c26.9-6.7,53.8-9.3,78.2-9.6c-1.1,22.1,0.6,48.5,9.5,74.9c0-26.4,3.5-52.7,7.8-74.8
		c46.1,1.2,79.5,9.5,79.5,9.5L302.1,433.4L302.1,433.4z"/>
	<path class="st1" d="M203.2,429.5c-24.6,3.1-51,8.8-76,18.7c22.8-16.4,50.9-25.8,77.7-31.1C204.3,420.9,203.7,425.1,203.2,429.5z
		 M233.6,412.7c-1.1,4.3-2.3,9-3.5,14.2c41.3-2.6,72,1,72,1v-16.4C302.1,411.6,271.8,408.6,233.6,412.7z"/>
	<path class="st1" d="M201.6,462.7c-25.1-2-51.4-2.6-74.4-0.2c23.6-8.2,49.7-11.5,74.4-12C201.5,454.4,201.5,458.5,201.6,462.7z
		 M225.2,450.6c-0.8,4.5-1.6,9.2-2.3,14c43.8,4.7,79.3,12.2,79.3,12.2v-16.4C302.1,460.5,268.2,452.3,225.2,450.6z"/>
	<path class="st0" d="M347.3,411.1c5.9,0,11.2,2.9,14.6,7l-6.4,5c-2.6-2.5-6.8-4.2-9.8-4.2h-0.5c-2.7,0-7.4,1-8.2,4.7
		c-0.6,2.8,2.4,3.7,6.1,4.2l3.3,0.4c8.2,1,13.9,4.2,12,13c-1.7,8-9.7,13-18.9,13H339c-8.3,0-13.6-4-15.9-8.5l6.4-5
		c1.3,2.7,4.9,5.7,11.1,5.7h0.4c4.8-0.1,8.4-2,9.1-5.2c0.8-3.7-2.4-4.7-6.6-5.2l-3.2-0.4c-7.8-1-13.2-4.2-11.6-11.6
		c1.7-7.9,9.5-12.7,18.1-12.9L347.3,411.1L347.3,411.1z M386.1,411.5c11.7,0,17.1,7,15.1,16.2c-2,9.4-10.4,16.3-22,16.3h-5.5
		l-2.1,9.7h-8.2l9-42.2L386.1,411.5L386.1,411.5z M381.5,436.2c5.3,0,10.6-2.5,11.9-8.4c1.2-5.7-3-8.4-8.3-8.4H379l-3.6,16.8H381.5z
		 M426.7,411.5c11.7,0,16.6,7,14.7,15.9c-1.3,6.3-5.7,11-11.8,13.3c1.5,1.1,2.9,3.3,4.6,7.4l2.4,5.6h-9.2l-1.8-4.2c-2.1-5-3-6-7-6.1
		H414l-2.2,10.3h-8.2l9-42.2L426.7,411.5L426.7,411.5z M415.7,435.6h6.7c5.4,0,10-2.5,11.2-8.1c1.1-5.4-2.5-8.1-7.8-8.1h-6.7
		L415.7,435.6z M475.5,428.6l-1.7,7.8h-18l-2,9.5h19.5l-1.7,7.8h-27.7l9-42.2h27.7l-1.7,7.8h-19.5l-2,9.2L475.5,428.6L475.5,428.6z
		 M500.1,440.2c-1.2-2.8-2-3.8-4.8-3.8h-3.8l-3.7,17.4h-8.2l9-42.2h8.2l-3.6,16.8h3.6c2.9,0,4.1-1,6.5-3.8l11-13h9.3l-13.1,15.6
		c-3.1,3.3-4.6,4.5-5.9,5.1c1.2,0.6,2.3,1.7,3.9,5.5l6.8,16.1h-9.3L500.1,440.2z M566.2,453.7l-19-36.2l-7.7,36.2h-2.9l9-42.3h1.5
		l18.9,36.2l7.7-36.2h2.9l-9,42.3H566.2z M621.5,432.6c-2.5,12-14.1,21.6-25.8,21.6s-19.2-9.6-16.6-21.6c2.5-11.9,14-21.6,25.8-21.6
		C616.6,411,624.1,420.7,621.5,432.6z M581.9,432.6c-2.3,10.7,4.1,18.8,14.3,18.8c10.2,0,20.1-8.1,22.4-18.8
		c2.3-10.6-4.2-18.8-14.4-18.8C594,413.8,584.2,422,581.9,432.6z M645.5,411.5c10.1,0,16.9,5.1,14.8,14.9c-1.6,7.5-7.4,12-14.4,13.8
		c2.3,0.8,4.1,2.7,5.8,6.8l3,6.9h-3.3l-2.5-6c-2.4-5.7-4.7-6.6-9.3-6.6h-10.5l-2.7,12.6h-2.9l9-42.3L645.5,411.5L645.5,411.5z
		 M629.7,438.5H640c8.2,0,15.8-3.6,17.6-12.1c1.8-8.5-4.3-12.1-12.4-12.1h-10.3L629.7,438.5z M702.7,418.1l-2.2,1.7
		c-2.6-3.8-7.1-6.1-12.6-6.1c-10.2,0-20.1,8.2-22.3,18.8c-2.3,10.7,4.1,18.9,14.3,18.9c5.1,0,10-2,14-5.3l2.5-11.7h-13.3l0.5-2.3
		h16.2l-3.2,15c-4.8,4.3-10.9,7-17.2,7c-11.7,0-19.2-9.6-16.6-21.6c2.5-11.9,14-21.6,25.8-21.6C694.8,411,699.8,413.8,702.7,418.1z
		 M733.9,431l-0.6,2.7h-21.7L708,451h22.8l-0.6,2.7h-25.7l9-42.3h25.7l-0.6,2.7h-22.8l-3.6,16.8L733.9,431L733.9,431z"/>
</g>
</svg>
