<?xml version="1.0" encoding="UTF-8" standalone="no"?>
<!-- Created with Inkscape (http://www.inkscape.org/) -->

<svg
   xmlns:dc="http://purl.org/dc/elements/1.1/"
   xmlns:cc="http://creativecommons.org/ns#"
   xmlns:rdf="http://www.w3.org/1999/02/22-rdf-syntax-ns#"
   xmlns:svg="http://www.w3.org/2000/svg"
   xmlns="http://www.w3.org/2000/svg"
   xmlns:sodipodi="http://sodipodi.sourceforge.net/DTD/sodipodi-0.dtd"
   xmlns:inkscape="http://www.inkscape.org/namespaces/inkscape"
   id="svg2"
   version="1.1"
   inkscape:version="0.91 r13725"
   width="50"
   height="50"
   viewBox="0 0 50 50"
   sodipodi:docname="1.svg">
  <metadata
     id="metadata8">
    <rdf:RDF>
      <cc:Work
         rdf:about="">
        <dc:format>image/svg+xml</dc:format>
        <dc:type
           rdf:resource="http://purl.org/dc/dcmitype/StillImage" />
        <dc:title></dc:title>
      </cc:Work>
    </rdf:RDF>
  </metadata>
  <defs
     id="defs6" />
  <sodipodi:namedview
     pagecolor="#ffffff"
     bordercolor="#666666"
     borderopacity="1"
     objecttolerance="10"
     gridtolerance="10"
     guidetolerance="10"
     inkscape:pageopacity="0"
     inkscape:pageshadow="2"
     inkscape:window-width="1600"
     inkscape:window-height="848"
     id="namedview4"
     showgrid="false"
     fit-margin-top="0"
     fit-margin-left="0"
     fit-margin-right="0"
     fit-margin-bottom="0"
     inkscape:zoom="4.72"
     inkscape:cx="24.152543"
     inkscape:cy="24.152542"
     inkscape:window-x="-8"
     inkscape:window-y="-8"
     inkscape:window-maximized="1"
     inkscape:current-layer="svg2" />
  <path
     style="fill:#0c96ee;fill-opacity:1;"
     d="M 0,25 C 0,3.444445 0.20666701,0 1.5,0 2.79078,0 3,3.277778 3,23.5 L 3,47 26.5,47 C 46.722222,47 50,47.20922 50,48.5 50,49.793333 46.555556,50 25,50 L 0,50 0,25 Z M 9.7125766,43.379243 C 8.474373,42.141039 8.890921,33 10.185549,33 c 0.652052,0 2.248761,-0.998836 3.548242,-2.219636 l 2.362694,-2.219635 -0.298242,7.469635 c -0.285928,7.161189 -0.403022,7.481855 -2.835667,7.765546 -1.395583,0.16275 -2.858083,-0.02475 -3.2499994,-0.416667 z M 19,34.674314 c 0,-8.455061 0.216072,-9.528675 2.314451,-11.5 C 22.587399,21.978441 23.937399,21 24.314451,21 24.691503,21 25,26.175 25,32.5 l 0,11.5 -3,0 -3,0 0,-9.325686 z m 9,-1.781303 c 0,-9.717278 0.197914,-11.031042 1.581787,-10.5 C 30.451771,22.726855 31.801771,23 32.581787,23 33.716026,23 34,25.102457 34,33.5 l 0,10.5 -3,0 -3,0 0,-11.106989 z M 38,32.69113 C 38,20.682116 39.021848,17.303682 42.276381,18.552563 43.779573,19.129392 44,20.798872 44,31.606989 L 44,44 41,44 38,44 38,32.69113 Z M 9.4929146,27.988535 C 9.020746,27.22455 11.13834,24.380178 15.212269,20.306249 l 6.469128,-6.469128 4.409302,1.14096 c 2.425115,0.627528 5.173404,1.362074 6.107307,1.632325 1.144402,0.331164 2.189874,-0.459803 3.206658,-2.426046 1.421206,-2.748311 1.385168,-2.972511 -0.621759,-3.868027 -1.95508,-0.872381 -1.68404,-1.208774 3.293342,-4.087451 L 43.5,3.092047 43.803287,8.659404 c 0.345999,6.351409 0.09685,6.892702 -2.526406,5.488778 -1.596925,-0.854648 -2.18472,-0.474787 -3.743117,2.41898 -2.056633,3.818937 -2.85835,3.982175 -10.033764,2.042985 l -5,-1.351274 -6.128656,5.97141 c -4.180282,4.073026 -6.367019,5.585732 -6.8784294,4.758252 z"
     id="path4138"
     inkscape:connector-curvature="0" />
</svg>
