<?xml version="1.0" encoding="UTF-8" standalone="no"?>
<!-- Created with Inkscape (http://www.inkscape.org/) -->

<svg
   xmlns:dc="http://purl.org/dc/elements/1.1/"
   xmlns:cc="http://creativecommons.org/ns#"
   xmlns:rdf="http://www.w3.org/1999/02/22-rdf-syntax-ns#"
   xmlns:svg="http://www.w3.org/2000/svg"
   xmlns="http://www.w3.org/2000/svg"
   xmlns:sodipodi="http://sodipodi.sourceforge.net/DTD/sodipodi-0.dtd"
   xmlns:inkscape="http://www.inkscape.org/namespaces/inkscape"
   id="svg2"
   version="1.1"
   inkscape:version="0.91 r13725"
   width="47.821495"
   height="52.985435"
   viewBox="0 0 47.821495 52.985435"
   sodipodi:docname="1.svg">
  <metadata
     id="metadata8">
    <rdf:RDF>
      <cc:Work
         rdf:about="">
        <dc:format>image/svg+xml</dc:format>
        <dc:type
           rdf:resource="http://purl.org/dc/dcmitype/StillImage" />
        <dc:title></dc:title>
      </cc:Work>
    </rdf:RDF>
  </metadata>
  <defs
     id="defs6" />
  <sodipodi:namedview
     pagecolor="#ffffff"
     bordercolor="#666666"
     borderopacity="1"
     objecttolerance="10"
     gridtolerance="10"
     guidetolerance="10"
     inkscape:pageopacity="0"
     inkscape:pageshadow="2"
     inkscape:window-width="1600"
     inkscape:window-height="848"
     id="namedview4"
     showgrid="false"
     fit-margin-top="0"
     fit-margin-left="0"
     fit-margin-right="0"
     fit-margin-bottom="0"
     inkscape:zoom="4.4528302"
     inkscape:cx="24"
     inkscape:cy="26.03628"
     inkscape:window-x="-8"
     inkscape:window-y="-8"
     inkscape:window-maximized="1"
     inkscape:current-layer="svg2" />
  <path
     style="fill:#626262"
     d="M 19.5,50.96095 C 16.2,49.898628 11.0025,49.022828 7.95,49.014728 4.8975,49.006628 1.86,48.46 1.2,47.8 0.403086,47.003086 0,42.660317 0,34.871429 0,20.925454 0.504257,20.021702 8.321428,19.957403 c 4.984969,-0.041 5.316448,-0.221528 8.866539,-4.828749 C 19.216348,12.49627 21.182384,9.027939 21.556934,7.421251 22.574658,3.055576 24.805868,0 26.976,0 c 5.9842,0 9.679434,5.076709 8.748294,12.018872 l -0.533981,3.981127 3.481767,0 c 2.539112,0 4.298013,0.816247 6.496636,3.01487 2.819405,2.819405 2.972313,3.354282 2.358473,8.25 C 46.172262,38.071162 43.040983,48.409018 40.413673,50.75 37.161371,53.647861 28.129619,53.738961 19.5,50.96095 Z M 38.214442,47.25 c 1.811891,-2.080013 3.539811,-9.019093 4.087962,-16.416667 0.108678,-1.466666 0.535096,-3.004166 0.947596,-3.416667 1.253274,-1.253274 0.841683,-4.182126 -0.821429,-5.845238 -1.081422,-1.081423 -3.453449,-1.571429 -7.606988,-1.571429 -4.410136,0 -5.910154,-0.336635 -5.569896,-1.25 C 32.105145,11.090352 32.337371,9.8614862 31.422829,7.261001 29.867036,2.837128 26.840575,3.627456 25.327735,8.85267 23.969087,13.545319 15.752221,23.999999 13.422677,23.999999 12.284845,23.999999 12,26.055067 12,34.264164 l 0,10.264164 7.25,2.155899 C 28.468707,49.425551 36.120477,49.653829 38.214442,47.25 Z M 7.553851,43.912868 c 1.030521,-1.667419 -1.28721,-3.57951 -2.666719,-2.2 C 3.733207,42.866792 4.455411,45 6,45 6.485081,45 7.184314,44.51079 7.553851,43.912868 Z"
     id="path3338"
     inkscape:connector-curvature="0" />
</svg>
