<?xml version="1.0" encoding="UTF-8" standalone="no"?>
<!-- Created with Inkscape (http://www.inkscape.org/) -->

<svg
   xmlns:dc="http://purl.org/dc/elements/1.1/"
   xmlns:cc="http://creativecommons.org/ns#"
   xmlns:rdf="http://www.w3.org/1999/02/22-rdf-syntax-ns#"
   xmlns:svg="http://www.w3.org/2000/svg"
   xmlns="http://www.w3.org/2000/svg"
   xmlns:sodipodi="http://sodipodi.sourceforge.net/DTD/sodipodi-0.dtd"
   xmlns:inkscape="http://www.inkscape.org/namespaces/inkscape"
   id="svg2"
   version="1.1"
   inkscape:version="0.91 r13725"
   width="50.385006"
   height="56.904449"
   viewBox="0 0 50.385006 56.904449"
   sodipodi:docname="2.svg">
  <metadata
     id="metadata8">
    <rdf:RDF>
      <cc:Work
         rdf:about="">
        <dc:format>image/svg+xml</dc:format>
        <dc:type
           rdf:resource="http://purl.org/dc/dcmitype/StillImage" />
        <dc:title></dc:title>
      </cc:Work>
    </rdf:RDF>
  </metadata>
  <defs
     id="defs6" />
  <sodipodi:namedview
     pagecolor="#ffffff"
     bordercolor="#666666"
     borderopacity="1"
     objecttolerance="10"
     gridtolerance="10"
     guidetolerance="10"
     inkscape:pageopacity="0"
     inkscape:pageshadow="2"
     inkscape:window-width="1600"
     inkscape:window-height="848"
     id="namedview4"
     showgrid="false"
     fit-margin-top="0"
     fit-margin-left="0"
     fit-margin-right="0"
     fit-margin-bottom="0"
     inkscape:zoom="4.1403509"
     inkscape:cx="23.869076"
     inkscape:cy="28.983052"
     inkscape:window-x="-8"
     inkscape:window-y="-8"
     inkscape:window-maximized="1"
     inkscape:current-layer="svg2" />
  <path
     style="fill:#616161"
     d="m 0.279877,44.260214 c 0.27303,-12.334901 0.344033,-12.692083 2.902299,-14.6 2.883461,-2.150444 9.137027,-2.615256 11.278155,-0.838278 1.040817,0.863802 1.7169,0.552167 2.978158,-1.372756 2.145465,-3.274394 7.169432,-4.644727 11.158576,-3.043603 l 3.037311,1.219086 -1.751804,-6.898147 c -0.963492,-3.79398 -2.01934,-7.331028 -2.346328,-7.860106 -0.326988,-0.529078 -2.719309,-0.9619598 -5.316269,-0.9619598 -4.372856,0 -4.809147,-0.231551 -5.904597,-3.1337305 -2.443596,-6.47382594 2.146722,-8.683401 10.323963,-4.969496 4.241455,1.926367 16.018921,12.3262713 19.508,17.2262313 3.029162,4.254065 5.328435,13.895224 3.696612,15.500386 -1.950394,1.918527 -18.153884,6.304064 -25.979089,7.03134 -6.369959,0.592025 -7.114854,0.906623 -9.120785,3.852065 C 10.145846,52.163138 5.108173,56.90445 2.53248,56.90445 L 0,56.90445 0.279877,44.260214 Z"
     id="path3338"
     inkscape:connector-curvature="0" />
</svg>
