<?xml version="1.0" encoding="UTF-8" standalone="no"?>
<!-- Created with Inkscape (http://www.inkscape.org/) -->

<svg
   xmlns:dc="http://purl.org/dc/elements/1.1/"
   xmlns:cc="http://creativecommons.org/ns#"
   xmlns:rdf="http://www.w3.org/1999/02/22-rdf-syntax-ns#"
   xmlns:svg="http://www.w3.org/2000/svg"
   xmlns="http://www.w3.org/2000/svg"
   xmlns:sodipodi="http://sodipodi.sourceforge.net/DTD/sodipodi-0.dtd"
   xmlns:inkscape="http://www.inkscape.org/namespaces/inkscape"
   id="svg2"
   version="1.1"
   inkscape:version="0.91 r13725"
   width="50"
   height="50"
   viewBox="0 0 50 50"
   sodipodi:docname="3.svg">
  <metadata
     id="metadata8">
    <rdf:RDF>
      <cc:Work
         rdf:about="">
        <dc:format>image/svg+xml</dc:format>
        <dc:type
           rdf:resource="http://purl.org/dc/dcmitype/StillImage" />
        <dc:title></dc:title>
      </cc:Work>
    </rdf:RDF>
  </metadata>
  <defs
     id="defs6" />
  <sodipodi:namedview
     pagecolor="#ffffff"
     bordercolor="#666666"
     borderopacity="1"
     objecttolerance="10"
     gridtolerance="10"
     guidetolerance="10"
     inkscape:pageopacity="0"
     inkscape:pageshadow="2"
     inkscape:window-width="1600"
     inkscape:window-height="848"
     id="namedview4"
     showgrid="false"
     fit-margin-top="0"
     fit-margin-left="0"
     fit-margin-right="0"
     fit-margin-bottom="0"
     inkscape:zoom="2.5106383"
     inkscape:cx="49.690009"
     inkscape:cy="34.841246"
     inkscape:window-x="-8"
     inkscape:window-y="-8"
     inkscape:window-maximized="1"
     inkscape:current-layer="svg2" />
  <path
     style="fill:#0c96ee;fill-opacity:1"
     d="M 20.010988,47.732205 C 19.618966,47.340182 19.282274,44.506937 19.262785,41.436103 19.243295,38.36527 18.584241,34.72777 17.79822,33.35277 16.112751,30.404351 15.867069,24.026901 17.333404,21.287029 19.00038,18.172254 21.190689,19.04355 22.988443,23.53658 l 1.674029,4.183811 1.776868,-4.183811 c 1.908605,-4.493997 4.157579,-5.36272 5.823696,-2.249551 1.409505,2.633684 1.304614,8.719292 -0.196171,11.381482 -0.677246,1.201343 -1.464746,5.109259 -1.75,8.684259 l -0.518645,6.5 -4.537232,0.296102 c -2.495477,0.162855 -4.857977,-0.02464 -5.25,-0.416667 z M 3.9334851,38.60277 C 3.6267161,35.99027 3.085212,31.931803 2.730142,29.583955 1.873617,23.920307 3.149018,22.535031 9.0569741,22.71207 c 4.1803879,0.12527 4.8026089,0.446213 5.6739429,2.926627 0.702819,2.000706 0.598479,3.691823 -0.370193,6 -0.741868,1.76774 -1.554734,5.126573 -1.806371,7.464073 -0.449417,4.174726 -0.524874,4.25 -4.2603129,4.25 -3.791716,0 -3.804418,-0.01384 -4.360555,-4.75 z m 33.1086019,0.5 c -0.251637,-2.3375 -1.064503,-5.696333 -1.806371,-7.464073 -0.968672,-2.308177 -1.073012,-3.999294 -0.370193,-6 0.871334,-2.480414 1.493555,-2.801357 5.673943,-2.926627 5.907956,-0.177039 7.183357,1.208237 6.326832,6.871885 -0.355069,2.347848 -0.896574,6.406315 -1.203343,9.018815 -0.556137,4.736164 -0.568838,4.75 -4.360555,4.75 -3.735439,0 -3.810896,-0.07527 -4.260313,-4.25 z m -12.957175,-16.75 c -0.272124,-1.854102 3.35e-4,-3 0.713308,-3 0.712973,0 0.985432,1.145898 0.713308,3 -0.242169,1.65 -0.563157,3 -0.713308,3 -0.150151,0 -0.471139,-1.35 -0.713308,-3 z M 6.5482201,20.690489 c -1.848774,-0.745996 -1.516791,-5.089035 0.474177,-6.203237 3.6704199,-2.05407 7.0699549,2.671386 4.0758229,5.665518 -1.2503409,1.250342 -2.4365249,1.390525 -4.5499999,0.537719 z M 38.49822,20.15277 c -2.985582,-2.985582 0.325708,-7.659384 4.024177,-5.680024 2.202343,1.178658 2.334514,5.451657 0.194036,6.273035 -2.232664,0.856754 -2.856092,0.76911 -4.218213,-0.593011 z M 21.869649,15.781341 c -3.947633,-3.947632 0.0053,-9.8537365 5.055064,-7.5528909 3.970664,1.8091549 2.265808,9.1243199 -2.126493,9.1243199 -0.746429,0 -2.064286,-0.707143 -2.928571,-1.571429 z M 8.2982201,10.539861 c 0,-1.5280699 5.4950019,-6.0789075 9.2178809,-7.6340435 7.225163,-3.01812298 16.35564,-0.994066 21.702729,4.811091 3.524708,3.8266585 1.750922,4.4326585 -2.373895,0.8110216 C 29.357881,1.9542095 18.201519,2.2772035 11.890872,9.2503901 9.9445141,11.401092 8.2982201,11.991978 8.2982201,10.539861 Z"
     id="path4138"
     inkscape:connector-curvature="0" />
</svg>
