<?xml version="1.0" encoding="UTF-8" standalone="no"?>
<!-- Created with Inkscape (http://www.inkscape.org/) -->

<svg
   xmlns:dc="http://purl.org/dc/elements/1.1/"
   xmlns:cc="http://creativecommons.org/ns#"
   xmlns:rdf="http://www.w3.org/1999/02/22-rdf-syntax-ns#"
   xmlns:svg="http://www.w3.org/2000/svg"
   xmlns="http://www.w3.org/2000/svg"
   xmlns:sodipodi="http://sodipodi.sourceforge.net/DTD/sodipodi-0.dtd"
   xmlns:inkscape="http://www.inkscape.org/namespaces/inkscape"
   id="svg2"
   version="1.1"
   inkscape:version="0.91 r13725"
   width="50.699352"
   height="48.867908"
   viewBox="0 0 50.699352 48.867908"
   sodipodi:docname="3.svg">
  <metadata
     id="metadata8">
    <rdf:RDF>
      <cc:Work
         rdf:about="">
        <dc:format>image/svg+xml</dc:format>
        <dc:type
           rdf:resource="http://purl.org/dc/dcmitype/StillImage" />
        <dc:title></dc:title>
      </cc:Work>
    </rdf:RDF>
  </metadata>
  <defs
     id="defs6" />
  <sodipodi:namedview
     pagecolor="#ffffff"
     bordercolor="#666666"
     borderopacity="1"
     objecttolerance="10"
     gridtolerance="10"
     guidetolerance="10"
     inkscape:pageopacity="0"
     inkscape:pageshadow="2"
     inkscape:window-width="1600"
     inkscape:window-height="848"
     id="namedview4"
     showgrid="false"
     fit-margin-top="0"
     fit-margin-left="0"
     fit-margin-right="0"
     fit-margin-bottom="0"
     inkscape:zoom="4.8163265"
     inkscape:cx="67.836218"
     inkscape:cy="25.008891"
     inkscape:window-x="-8"
     inkscape:window-y="-8"
     inkscape:window-maximized="1"
     inkscape:current-layer="svg2" />
  <path
     style="fill:#626262"
     d="m 5.1481703,48.216584 c -1.68993,-1.10412 -5.66604992,-10.95557 -4.91332192,-12.17351 0.86607492,-1.401338 3.84471392,-1.354273 5.28245392,0.08347 0.859526,0.859526 1.310412,0.484176 1.810138,-1.506891 0.53719,-2.140337 -0.0098,-3.398989 -2.837127,-6.528516 -6.423994,-7.110593 -5.904362,-16.997515 1.232209,-23.4449776 7.1262257,-6.4381161 15.8089967,-6.1685571 22.6817147,0.7041615 4.519028,4.5190285 6.067196,9.1593471 4.964998,14.8815781 -1.068252,5.545999 -2.011523,6.363362 -5.047735,4.373959 -2.270919,-1.487963 -2.534722,-2.182306 -1.970926,-5.187594 1.256687,-6.698716 -3.416092,-12.4363642 -10.128256,-12.4363642 -3.589476,0 -9.4496597,5.8887402 -9.4496597,9.4957072 0,3.27455 2.828609,8.315119 5.0643937,9.02473 0.897414,0.284828 3.071254,2.30925 4.830757,4.498716 l 3.199095,3.980846 -2.949298,0 c -2.364719,0 -3.152491,0.58288 -3.97444,2.940724 -0.844632,2.422915 -0.771574,2.843421 0.41491,2.388124 1.71041,-0.656345 4.414582,1.350843 4.414582,3.276751 0,0.74839 -2.23504,2.49329 -4.966756,3.877555 -5.3789087,2.725699 -5.9624267,2.859166 -7.6577317,1.751533 z M 41.559811,46.714019 c -1.649125,-1.767336 -2.845077,-2.249938 -4.287153,-1.729996 -2.882778,1.03939 -4.5,0.125937 -4.5,-2.541727 0,-1.447365 0.755289,-2.565343 2,-2.960399 1.1,-0.349126 2,-1.513024 2,-2.58644 0,-1.571135 -0.477087,-1.831923 -2.446893,-1.337533 -5.336534,1.339385 -13.880981,-3.533546 -17.142383,-9.776367 -2.487029,-4.760553 -1.274249,-15.7996596 1.735784,-15.7996596 2.980326,0 4.560163,2.9973386 4.10062,7.7798846 -0.395497,4.116022 -0.108063,5.086453 2.186073,7.380589 3.48925,3.48925 6.774042,4.197601 11.094367,2.392454 4.04812,-1.691413 6.596613,-6.452486 5.769601,-10.77872 -0.541108,-2.830623 -4.741192,-7.7427106 -6.683533,-7.8165333 -0.6125,-0.023279 -2.105418,-1.5982793 -3.317596,-3.5 l -2.203959,-3.4576739 3.567805,0 c 8.416104,0 15.781204,8.0804612 15.644177,17.1636742 -0.07241,4.800119 -2.972997,10.992043 -5.922379,12.6426 -0.843045,0.471791 -1.198186,1.508339 -0.8382,2.446446 0.508786,1.325876 1.067255,1.42613 3.010966,0.540516 1.792385,-0.816665 2.767032,-0.77132 3.915936,0.182186 2.236004,1.855718 1.871842,3.911525 -0.918052,5.182686 -1.959247,0.892692 -2.341135,1.647885 -1.913797,3.784574 0.344925,1.724627 -0.01436,3.124334 -1.015181,3.954941 -1.298726,1.077847 -1.91865,0.889503 -3.836203,-1.165502 z"
     id="path3338"
     inkscape:connector-curvature="0" />
</svg>
