<?xml version="1.0" encoding="UTF-8" standalone="no"?>
<!-- Created with Inkscape (http://www.inkscape.org/) -->

<svg
   xmlns:dc="http://purl.org/dc/elements/1.1/"
   xmlns:cc="http://creativecommons.org/ns#"
   xmlns:rdf="http://www.w3.org/1999/02/22-rdf-syntax-ns#"
   xmlns:svg="http://www.w3.org/2000/svg"
   xmlns="http://www.w3.org/2000/svg"
   xmlns:sodipodi="http://sodipodi.sourceforge.net/DTD/sodipodi-0.dtd"
   xmlns:inkscape="http://www.inkscape.org/namespaces/inkscape"
   id="svg2"
   version="1.1"
   inkscape:version="0.91 r13725"
   width="50"
   height="50"
   viewBox="0 0 50 50"
   sodipodi:docname="4.svg">
  <metadata
     id="metadata8">
    <rdf:RDF>
      <cc:Work
         rdf:about="">
        <dc:format>image/svg+xml</dc:format>
        <dc:type
           rdf:resource="http://purl.org/dc/dcmitype/StillImage" />
        <dc:title></dc:title>
      </cc:Work>
    </rdf:RDF>
  </metadata>
  <defs
     id="defs6" />
  <sodipodi:namedview
     pagecolor="#ffffff"
     bordercolor="#666666"
     borderopacity="1"
     objecttolerance="10"
     gridtolerance="10"
     guidetolerance="10"
     inkscape:pageopacity="0"
     inkscape:pageshadow="2"
     inkscape:window-width="1600"
     inkscape:window-height="848"
     id="namedview4"
     showgrid="false"
     fit-margin-top="0"
     fit-margin-left="0"
     fit-margin-right="0"
     fit-margin-bottom="0"
     inkscape:zoom="10.042553"
     inkscape:cx="29.046555"
     inkscape:cy="26.146183"
     inkscape:window-x="-8"
     inkscape:window-y="-8"
     inkscape:window-maximized="1"
     inkscape:current-layer="svg2" />
  <path
     style="fill:#0c96ee;fill-opacity:1"
     d="m 6.7830035,47.073712 c -0.319164,-0.831728 0.292209,-4.694149 1.358607,-8.583158 l 1.9389055,-7.070925 -3.8064215,0 -3.806421,0 -0.302712,-14.25 c -0.166492,-7.8375014 -0.163655,-14.5875014 0.0063,-15.0000014 0.40377,-0.97997 28.9624935,-0.97997 29.4331785,0 0.198126,0.4125 0.184624,3.564299 -0.03,7.003998 -0.437959,7.0187504 -2.212195,7.5697314 -2.212195,0.686985 l 0,-4.440983 -12.5,0 -12.5000005,0 0,12.0000014 0,12 12.5000005,0 12.5,0 0,-3 c 0,-1.65 0.45,-3 1,-3 0.55,0 1,1.8 1,4 0,3.983885 -0.01573,4 -3.90559,4 l -3.905591,0 2.074772,7.530817 c 1.488066,5.401243 1.768789,7.836802 0.992723,8.612868 -1.663293,1.663293 -3.094281,0.185859 -4.296457,-4.435908 -0.601971,-2.314278 -1.531545,-5.895278 -2.065719,-7.957777 -0.78586,-3.034283 -1.433658,-3.75 -3.394138,-3.75 -2.013798,0 -2.605927,0.717621 -3.506788,4.249999 -2.198448,8.620364 -3.5237655,12.116639 -4.7426865,12.511529 -0.687211,0.222633 -1.510609,-0.275718 -1.829772,-1.107445 z M 33.868688,47.430045 C 33.496424,46.827709 33.511648,40.9767 33.902518,34.427803 L 34.613194,22.520716 31.737722,21.877731 C 22.974689,19.918229 19.86225,18.741036 19.86225,17.386167 c 0,-1.758297 3.414341,-1.757517 11.86885,0.0027 l 5.868851,1.221894 -0.523694,3.904429 c -0.408624,3.046531 -0.191933,3.904439 0.986185,3.904439 1.158436,0 1.421089,-0.93105 1.128418,-4 -0.357977,-3.753736 -0.218778,-4 2.260974,-4 2.325051,0 2.909896,0.733538 4.86923,6.107196 1.492903,4.094427 1.895352,6.438638 1.221123,7.112867 -1.272052,1.272052 -3.048277,0.198627 -4.256604,-2.57239 -0.641292,-1.470653 -0.855627,1.155403 -0.679923,8.330487 0.226516,9.250068 0.05416,10.518101 -1.470571,10.818926 -1.339465,0.264273 -1.895481,-0.628704 -2.47702,-3.978161 l -0.74986,-4.318926 -0.522979,3.921832 c -0.521908,3.91379 -2.23507,5.66205 -3.516542,3.588585 z M 6.3622495,20.919629 c 0,-3.025 0.45,-5.500001 1,-5.500001 0.55,0 1,2.475001 1,5.500001 0,3.025 -0.45,5.5 -1,5.5 -0.55,0 -1,-2.475 -1,-5.5 z m 5.0000005,-3.5 c 0,-5.333334 0.407407,-9.0000014 1,-9.0000014 0.592593,0 1,3.6666674 1,9.0000014 0,5.333333 -0.407407,9 -1,9 -0.592593,0 -1,-3.666667 -1,-9 z m 4.202046,2.349318 c 0.371452,-8.538876 2.297954,-8.692003 2.297954,-0.182651 0,4.165955 -0.421108,6.307036 -1.297954,6.599318 -0.998095,0.332698 -1.229119,-1.149709 -1,-6.416667 z M 34.847019,14.37164 c -1.368808,-4.312731 4.420684,-6.8657094 6.549441,-2.88809 0.819897,1.531991 0.797407,2.43404 -0.08726,3.5 -1.797012,2.165269 -5.697976,1.795883 -6.46218,-0.61191 z"
     id="path4138"
     inkscape:connector-curvature="0" />
</svg>
