<?xml version="1.0" encoding="UTF-8" standalone="no"?>
<!-- Created with Inkscape (http://www.inkscape.org/) -->

<svg
   xmlns:dc="http://purl.org/dc/elements/1.1/"
   xmlns:cc="http://creativecommons.org/ns#"
   xmlns:rdf="http://www.w3.org/1999/02/22-rdf-syntax-ns#"
   xmlns:svg="http://www.w3.org/2000/svg"
   xmlns="http://www.w3.org/2000/svg"
   xmlns:sodipodi="http://sodipodi.sourceforge.net/DTD/sodipodi-0.dtd"
   xmlns:inkscape="http://www.inkscape.org/namespaces/inkscape"
   id="svg2"
   version="1.1"
   inkscape:version="0.91 r13725"
   width="50"
   height="50"
   viewBox="0 0 50 50"
   sodipodi:docname="5.svg">
  <metadata
     id="metadata8">
    <rdf:RDF>
      <cc:Work
         rdf:about="">
        <dc:format>image/svg+xml</dc:format>
        <dc:type
           rdf:resource="http://purl.org/dc/dcmitype/StillImage" />
        <dc:title></dc:title>
      </cc:Work>
    </rdf:RDF>
  </metadata>
  <defs
     id="defs6" />
  <sodipodi:namedview
     pagecolor="#ffffff"
     bordercolor="#666666"
     borderopacity="1"
     objecttolerance="10"
     gridtolerance="10"
     guidetolerance="10"
     inkscape:pageopacity="0"
     inkscape:pageshadow="2"
     inkscape:window-width="1600"
     inkscape:window-height="848"
     id="namedview4"
     showgrid="false"
     fit-margin-top="0"
     fit-margin-left="0"
     fit-margin-right="0"
     fit-margin-bottom="0"
     inkscape:zoom="2.5652174"
     inkscape:cx="56.602895"
     inkscape:cy="45.389168"
     inkscape:window-x="-8"
     inkscape:window-y="-8"
     inkscape:window-maximized="1"
     inkscape:current-layer="svg2" />
  <path
     style="fill:#0c96ee;fill-opacity:1"
     d="M 10.147959,47.315626 C 4.8173406,45.375949 1.1488626,38.136183 2.5890416,32.398053 3.3584276,29.332576 13.401195,18.457868 17.348298,16.416143 c 4.526754,-2.341562 9.35579,-1.768458 13.033883,1.546846 l 3.265777,2.943657 -2.138889,2.167455 -2.138889,2.167454 -2.111111,-2.111111 c -3.44956,-3.44956 -5.923457,-2.632098 -12.777778,4.222222 -6.7998654,6.799867 -7.6666004,9.333399 -4.333332,12.666667 2.629626,2.629627 5.212733,2.526264 8.673274,-0.347062 2.208,-1.833327 3.665262,-2.245079 6.65769,-1.881141 l 3.830965,0.465919 -3.330965,3.466461 c -5.377855,5.596614 -10.675654,7.468004 -15.830964,5.592116 z m 12.499999,-13.24165 c -1.1,-0.450221 -2.871618,-1.78758 -3.936928,-2.971907 -1.918264,-2.132575 -1.916926,-2.173326 0.138889,-4.229141 l 2.075817,-2.075817 2.111111,2.111111 c 3.44956,3.44956 5.923457,2.632098 12.777778,-4.222222 6.799866,-6.799867 7.666601,-9.333399 4.333333,-12.666667 -2.63894,-2.6389396 -5.222534,-2.5250736 -8.677942,0.382459 -2.327648,1.958587 -3.521529,2.269936 -6.710442,1.75 L 20.880525,11.519333 25.455136,7.3032204 C 27.971172,4.9843574 31.1979,2.7939185 32.625643,2.4355785 41.545693,0.19678836 49.956651,8.6767922 47.706875,17.640613 46.937489,20.70609 36.894721,31.580798 32.947618,33.622523 29.980133,35.157519 25.748491,35.343 22.647958,34.073976 Z"
     id="path4138"
     inkscape:connector-curvature="0" />
</svg>
