<?xml version="1.0" encoding="UTF-8" standalone="no"?>
<!-- Created with Inkscape (http://www.inkscape.org/) -->

<svg
   xmlns:dc="http://purl.org/dc/elements/1.1/"
   xmlns:cc="http://creativecommons.org/ns#"
   xmlns:rdf="http://www.w3.org/1999/02/22-rdf-syntax-ns#"
   xmlns:svg="http://www.w3.org/2000/svg"
   xmlns="http://www.w3.org/2000/svg"
   xmlns:sodipodi="http://sodipodi.sourceforge.net/DTD/sodipodi-0.dtd"
   xmlns:inkscape="http://www.inkscape.org/namespaces/inkscape"
   id="svg2"
   version="1.1"
   inkscape:version="0.91 r13725"
   width="50"
   height="50"
   viewBox="0 0 50 50"
   sodipodi:docname="6.svg">
  <metadata
     id="metadata8">
    <rdf:RDF>
      <cc:Work
         rdf:about="">
        <dc:format>image/svg+xml</dc:format>
        <dc:type
           rdf:resource="http://purl.org/dc/dcmitype/StillImage" />
        <dc:title></dc:title>
      </cc:Work>
    </rdf:RDF>
  </metadata>
  <defs
     id="defs6" />
  <sodipodi:namedview
     pagecolor="#ffffff"
     bordercolor="#666666"
     borderopacity="1"
     objecttolerance="10"
     gridtolerance="10"
     guidetolerance="10"
     inkscape:pageopacity="0"
     inkscape:pageshadow="2"
     inkscape:window-width="1600"
     inkscape:window-height="848"
     id="namedview4"
     showgrid="false"
     fit-margin-top="0"
     fit-margin-left="0"
     fit-margin-right="0"
     fit-margin-bottom="0"
     inkscape:zoom="5.0212766"
     inkscape:cx="30.994194"
     inkscape:cy="23.134801"
     inkscape:window-x="-8"
     inkscape:window-y="-8"
     inkscape:window-maximized="1"
     inkscape:current-layer="svg2" />
  <path
     style="fill:#0c96ee;fill-opacity:1"
     d="m 7.7365628,48.569628 c -0.7822531,-0.782251 -1.26979,-4.619269 -1.26979,-9.993498 0,-7.555703 0.3187691,-9.078729 2.3808562,-11.375331 1.494998,-1.665016 3.756335,-2.76969 6.077626,-2.968942 l 3.696768,-0.317319 2.775973,7.936188 c 1.526785,4.364903 3.3904,7.936187 4.141369,7.936187 0.750969,0 2.482169,-3.310653 3.847112,-7.357008 1.364942,-4.046354 2.851914,-7.727209 3.304383,-8.179677 1.367919,-1.367918 8.521786,1.175379 10.25118,3.644435 2.016756,2.879324 2.284208,18.739402 0.348645,20.674965 -1.777608,1.777608 -33.7765135,1.777608 -35.5541222,0 z M 24.455467,30.879111 c 0,-2.280348 -0.289031,-4.899289 -0.642291,-5.81987 -0.466496,-1.21567 -0.0011,-1.673782 1.700449,-1.673782 1.701534,0 2.166945,0.458112 1.700449,1.673782 -0.35326,0.920581 -0.642291,3.539522 -0.642291,5.81987 0,2.28035 -0.476171,4.14609 -1.058158,4.14609 -0.581987,0 -1.058158,-1.86574 -1.058158,-4.14609 z M 21.544614,18.584285 C 15.183022,15.909437 13.96796,8.3143722 19.083277,3.1990554 c 4.158573,-4.15857076 8.702123,-4.15857076 12.860695,0 7.704066,7.7040656 -0.345311,19.6126376 -10.399358,15.3852296 z"
     id="path4138"
     inkscape:connector-curvature="0" />
</svg>
