<svg xmlns="http://www.w3.org/2000/svg" xmlns:xlink="http://www.w3.org/1999/xlink" preserveAspectRatio="xMidYMid" width="14.56" height="27.19" viewBox="0 0 14.56 27.19">
  <defs>
    <style>
      .cls-1 {
        fill: #3e425e;
        fill-rule: evenodd;
      }
    </style>
  </defs>
  <path d="M14.014,0.007 L10.521,0.001 C6.597,0.001 4.061,2.627 4.061,6.693 L4.061,9.777 L0.549,9.777 C0.246,9.777 0.000,10.026 0.000,10.332 L0.000,14.802 C0.000,15.108 0.246,15.357 0.549,15.357 L4.061,15.357 L4.061,26.636 C4.061,26.942 4.307,27.190 4.610,27.190 L9.192,27.190 C9.496,27.190 9.742,26.942 9.742,26.636 L9.742,15.357 L13.848,15.357 C14.151,15.357 14.397,15.108 14.397,14.802 L14.398,10.332 C14.398,10.185 14.341,10.044 14.238,9.940 C14.135,9.836 13.995,9.777 13.849,9.777 L9.742,9.777 L9.742,7.163 C9.742,5.905 10.038,5.267 11.660,5.267 L14.014,5.266 C14.317,5.266 14.563,5.018 14.563,4.712 L14.563,0.561 C14.563,0.256 14.317,0.008 14.014,0.007 Z" class="cls-1"/>
</svg>
