<svg xmlns="http://www.w3.org/2000/svg" xmlns:xlink="http://www.w3.org/1999/xlink" preserveAspectRatio="xMidYMid" width="27.31" height="27.19" viewBox="0 0 27.31 27.19">
  <defs>
    <style>
      .cls-1 {
        fill: #3e425e;
        fill-rule: evenodd;
      }
    </style>
  </defs>
  <path d="M13.959,6.498 C15.204,6.498 16.400,6.823 17.420,7.441 L18.586,8.216 C18.992,8.486 19.539,8.438 19.888,8.102 L23.288,4.828 C23.506,4.619 23.616,4.326 23.588,4.030 C23.561,3.733 23.399,3.464 23.146,3.296 L21.170,1.979 C21.130,1.952 21.088,1.928 21.044,1.907 L19.130,0.989 C19.105,0.977 19.079,0.965 19.052,0.955 C17.404,0.323 15.666,0.002 13.889,0.002 C10.225,0.002 6.769,1.368 4.157,3.850 C1.505,6.369 0.031,9.795 0.005,13.497 C-0.021,17.200 1.407,20.646 4.025,23.201 C6.622,25.736 10.307,27.190 14.135,27.190 C17.922,27.190 21.476,25.760 23.884,23.268 C25.792,21.295 26.962,18.659 27.270,15.645 C27.273,15.617 27.275,15.588 27.275,15.559 L27.311,12.852 C27.312,12.796 27.307,12.740 27.298,12.685 L27.149,11.759 C27.071,11.274 26.640,10.916 26.134,10.916 L14.266,10.916 C13.699,10.916 13.239,11.363 13.239,11.914 L13.239,15.904 C13.239,16.455 13.699,16.902 14.266,16.902 L20.317,16.902 C20.039,17.492 19.602,18.115 19.050,18.696 C17.845,19.963 16.047,20.689 14.119,20.689 C12.149,20.689 10.263,19.939 8.944,18.632 C6.199,15.910 6.230,11.169 9.011,8.485 C10.321,7.222 12.124,6.498 13.959,6.498 Z" class="cls-1"/>
</svg>
