<svg xmlns="http://www.w3.org/2000/svg" xmlns:xlink="http://www.w3.org/1999/xlink" preserveAspectRatio="xMidYMid" width="14.06" height="19.97" viewBox="0 0 14.06 19.97">
  <defs>
    <style>
      .cls-1 {
        fill: #b3b3b3;
        fill-rule: evenodd;
      }
    </style>
  </defs>
  <path d="M6.574,19.675 C6.679,19.792 6.780,19.866 6.878,19.919 L6.883,19.921 L7.080,19.982 L7.276,19.921 L7.281,19.919 C7.379,19.866 7.480,19.792 7.585,19.675 C7.585,19.675 13.405,13.348 13.989,7.867 C14.025,7.584 14.048,7.298 14.048,7.006 C14.048,3.131 10.906,-0.010 7.029,-0.010 C3.153,-0.010 0.010,3.131 0.010,7.006 C0.010,7.303 0.034,7.592 0.070,7.878 C0.670,13.358 6.574,19.675 6.574,19.675 ZM7.029,2.493 C9.519,2.493 11.544,4.518 11.544,7.006 C11.544,9.494 9.519,11.519 7.029,11.519 C4.541,11.519 2.514,9.494 2.514,7.006 C2.514,4.518 4.541,2.493 7.029,2.493 Z" class="cls-1"/>
</svg>
