<?xml version="1.0" encoding="utf-8"?>
<!-- Generator: Adobe Illustrator 20.1.0, SVG Export Plug-In . SVG Version: 6.00 Build 0)  -->
<svg version="1.1" id="Слой_1" xmlns="http://www.w3.org/2000/svg" xmlns:xlink="http://www.w3.org/1999/xlink" x="0px" y="0px"
	 viewBox="0 0 745 375" style="enable-background:new 0 0 745 375;" xml:space="preserve">
<style type="text/css">
	.st0{fill:#FFFFFF;}
</style>
<path class="st0" d="M665.5,232.9c-8.1,23.1-13.8,50.9-17.1,83.3l-2.1,20.7h-49.5l1.9-20.7c2.9-30.5,9.6-58.7,20.1-84.8
	c10.4-26.1,24.9-49.3,43.4-69.7H555.8v-38.1h153.8v38.1C688.3,186,673.7,209.8,665.5,232.9z M443.2,173.3h-47.6v-34.9l97-14.9v213.4
	h-49.4V173.3z M410,35.6h24.7v8h-14.6v20h11.3v8h-11.3v22.9h15v8H410V35.6z M392.9,96c-1.3,2.5-2.7,4.3-4.4,5.3
	c-1.7,1.1-3.6,1.6-5.9,1.6c-0.8,0-1.7-0.1-2.7-0.3c-1-0.2-2.1-0.5-3.2-1.1c-1.1-0.5-2.2-1.3-3.3-2.3c-1.1-1-2-2.3-2.9-4
	s-1.5-3.7-2.1-6.1c-0.5-2.4-0.8-5.3-0.8-8.6V57c0-3.4,0.3-6.2,0.8-8.6c0.5-2.4,1.3-4.4,2.2-6c0.9-1.6,2-2.9,3.1-3.9
	c1.2-1,2.4-1.7,3.7-2.2c1.3-0.5,2.5-0.8,3.8-1c1.3-0.2,2.4-0.2,3.5-0.2c2.7,0,5,0.4,6.9,1.1c1.9,0.7,3.4,1.8,4.5,3
	c1.2,1.3,2,2.8,2.5,4.5c0.5,1.7,0.8,3.5,0.8,5.5c0,1.4-0.1,2.8-0.3,4c-0.2,1.2-0.4,2.5-0.7,4h-8.1V54c0-7.3-2-11-5.9-11
	c-1.1,0-2,0.2-2.8,0.5c-0.8,0.4-1.4,1-2,1.9c-0.5,0.9-0.9,2-1.2,3.5c-0.2,1.4-0.4,3.2-0.4,5.4v30.2c0,2.1,0.1,3.8,0.4,5.2
	c0.2,1.4,0.6,2.5,1.1,3.3c0.5,0.8,1.1,1.4,1.9,1.8c0.8,0.4,1.7,0.5,2.8,0.5c1.1,0,2.1-0.3,2.9-0.9c0.8-0.6,1.5-1.4,2-2.4
	c0.5-1,0.9-2.2,1.2-3.6c0.2-1.4,0.4-2.9,0.4-4.5v-8.7h-5.2v-6.6h15v33.8H394L392.9,96z M287.8,340c-22.9,0-41-7.3-54.3-22
	c-13.4-14.7-20.1-36.4-20.1-65.3v-44.8c0-28.8,6.6-50.6,19.9-65.3c13.3-14.7,31.3-22,54.2-22c22.8,0,40.8,7.4,54.3,22.1
	c13.4,14.7,20.1,36.5,20.1,65.2v44.8c0,28.8-6.7,50.6-20.1,65.3C328.4,332.6,310.4,340,287.8,340z M312.5,204.5
	c0-16.3-2.1-28-6.4-35.2c-4.3-7.1-10.5-10.7-18.6-10.7c-8.2,0-14.4,3.6-18.5,10.7c-4.2,7.1-6.2,18.8-6.2,35.2v51.3
	c0,16.6,2.1,28.4,6.3,35.5c4.2,7.1,10.4,10.6,18.8,10.6c8.1,0,14.3-3.5,18.5-10.6c4.2-7.1,6.3-18.9,6.3-35.5V204.5z M350.8,102.3
	l-8.9-25h-3.8v25h-9.9V35.6h11c1.3,0,2.6,0.1,4.1,0.2c1.5,0.1,3,0.4,4.5,0.8c1.5,0.4,2.9,1,4.3,1.8c1.4,0.8,2.6,1.9,3.7,3.3
	c1.1,1.4,1.9,3.2,2.6,5.3c0.7,2.1,1,4.7,1,7.7v1.7c0,5.1-0.7,9.2-2.2,12.4c-1.5,3.2-3.6,5.5-6.4,6.9l10.7,26.7H350.8z M349.2,52.9
	c0-1.7-0.2-3.2-0.5-4.5c-0.3-1.3-0.8-2.3-1.6-3.1c-0.7-0.8-1.7-1.4-2.9-1.8c-1.2-0.4-2.8-0.6-4.6-0.6h-1.5v27.1h1.5
	c1.8,0,3.3-0.2,4.5-0.6s2.2-1,3-2c0.8-0.9,1.3-2.1,1.6-3.7c0.3-1.5,0.5-3.4,0.5-5.6V52.9z M315.6,95.2c-0.9,1.7-1.9,3-3.1,4
	c-1.2,1-2.3,1.8-3.6,2.3c-1.2,0.6-2.4,0.9-3.6,1.1c-1.2,0.2-2.3,0.3-3.2,0.3c-1.1,0-2.2-0.1-3.5-0.3c-1.3-0.2-2.5-0.5-3.7-1.1
	c-1.2-0.5-2.4-1.3-3.5-2.3c-1.1-1-2.1-2.3-3-4c-0.9-1.6-1.6-3.7-2.1-6.1c-0.5-2.4-0.8-5.3-0.8-8.6V57c0-3.4,0.3-6.2,0.8-8.6
	c0.5-2.4,1.2-4.4,2.1-6c0.9-1.6,1.9-2.9,3-3.9c1.1-1,2.3-1.7,3.6-2.2s2.5-0.8,3.7-1c1.2-0.2,2.4-0.2,3.4-0.2c1,0,2.1,0.1,3.3,0.2
	c1.2,0.1,2.4,0.5,3.6,0.9c1.2,0.5,2.4,1.2,3.5,2.1c1.1,1,2.2,2.2,3,3.9c0.9,1.6,1.6,3.6,2.1,6.1c0.5,2.4,0.8,5.3,0.8,8.7v23.6
	c0,3.3-0.3,6.2-0.8,8.5C317.2,91.5,316.5,93.6,315.6,95.2z M308.1,54.2c0-2.1-0.1-3.9-0.4-5.4c-0.2-1.4-0.6-2.6-1.1-3.5
	c-0.5-0.9-1.1-1.5-1.8-1.9c-0.7-0.4-1.6-0.5-2.6-0.5c-1,0-1.9,0.2-2.7,0.5c-0.8,0.4-1.4,1-1.9,1.9c-0.5,0.9-0.9,2-1.1,3.5
	c-0.2,1.4-0.4,3.2-0.4,5.4v30.4c0,2.1,0.1,3.8,0.4,5.2c0.2,1.4,0.6,2.5,1.1,3.3c0.5,0.8,1.1,1.4,1.9,1.8c0.8,0.3,1.6,0.5,2.7,0.5
	c1,0,1.9-0.2,2.6-0.5c0.7-0.3,1.4-0.9,1.8-1.8c0.5-0.8,0.8-1.9,1.1-3.3c0.2-1.4,0.4-3.1,0.4-5.2V54.2z M251.6,58.9h-0.3
	c0.1,1.2,0.2,2.4,0.3,3.8c0.1,1.4,0.2,3,0.4,4.8s0.2,4,0.3,6.5c0.1,2.5,0.1,5.4,0.1,8.8v19.6h-9V35.6h8.2l16.2,44.6h0.2
	c-0.1-1-0.2-2.2-0.3-3.5c-0.1-1.3-0.2-2.7-0.4-4.4c-0.1-1.6-0.2-3.5-0.3-5.5s-0.1-4.4-0.1-7V35.6h9.1v66.7h-8.3L251.6,58.9z
	 M209.7,102.3l-12.3-31.8h-0.3v31.8H187V35.6h10.1v29.1h0.3L209,35.6h10.1l-12.9,31.3l14.3,35.4H209.7z M134.5,267L105.7,298
	l0.4,0.9h83.2v38.1H40.1v-32.2l68.6-72.1c8.7-10,15.1-18.8,19.2-26.7c4.1-7.8,6.2-14.6,6.2-20.4c0-8.2-2.1-14.7-6.2-19.6
	c-4.2-4.9-10.4-7.3-18.7-7.3c-7.4,0-13.3,3.1-17.5,9.4c-4.2,6.3-6.4,14.3-6.4,24.1H36.8l-0.3-0.9c-0.5-19.7,6-36.4,19.3-50.2
	c13.4-13.7,31.1-20.6,53.2-20.6c23.4,0,41.7,5.8,54.9,17.3c13.1,11.5,19.7,27.3,19.7,47.3c0,13.5-3.5,25.4-10.5,35.7
	C166.2,231.3,153.3,246.6,134.5,267z M154.6,35.6h24.7v8h-14.6v20H176v8h-11.3v22.9h15v8h-25.1V35.6z M136.2,102.3l-8.9-25h-3.8v25
	h-9.9V35.6h11c1.3,0,2.6,0.1,4.1,0.2c1.5,0.1,3,0.4,4.5,0.8c1.5,0.4,2.9,1,4.3,1.8c1.4,0.8,2.6,1.9,3.7,3.3c1.1,1.4,1.9,3.2,2.6,5.3
	c0.7,2.1,1,4.7,1,7.7v1.7c0,5.1-0.7,9.2-2.2,12.4c-1.5,3.2-3.6,5.5-6.4,6.9l10.7,26.7H136.2z M134.7,52.9c0-1.7-0.2-3.2-0.5-4.5
	c-0.3-1.3-0.8-2.3-1.6-3.1c-0.7-0.8-1.7-1.4-2.9-1.8c-1.2-0.4-2.8-0.6-4.6-0.6h-1.5v27.1h1.5c1.8,0,3.3-0.2,4.5-0.6s2.2-1,3-2
	c0.8-0.9,1.3-2.1,1.6-3.7c0.3-1.5,0.5-3.4,0.5-5.6V52.9z M102.6,74.2c-1,1.7-2.2,3.1-3.5,4.2c-1.3,1-2.7,1.8-4.2,2.4
	c-1.4,0.5-2.9,0.9-4.4,1.1c-1.5,0.2-2.9,0.3-4.2,0.3h-1v20.3H75.3V35.6h10.1c1.3,0,2.7,0.1,4.2,0.2c1.5,0.1,3,0.4,4.6,0.8
	c1.5,0.4,3,1.1,4.4,2c1.4,0.9,2.7,2.1,3.8,3.6c1.1,1.5,2,3.4,2.6,5.7c0.7,2.3,1,5.1,1,8.4v2.3c0,3.6-0.3,6.6-0.9,9.2
	C104.5,70.3,103.6,72.5,102.6,74.2z M95.6,54.5c0-2-0.1-3.7-0.4-5.1c-0.3-1.4-0.8-2.6-1.5-3.6c-0.7-0.9-1.7-1.6-3-2.1
	c-1.3-0.5-2.8-0.7-4.7-0.7h-0.5v31.6h0.5c1.8,0,3.4-0.3,4.6-0.8c1.3-0.5,2.2-1.4,3-2.5c0.7-1.1,1.3-2.6,1.6-4.4
	c0.3-1.8,0.5-3.9,0.5-6.4V54.5z M46,53.4c0.3,0.6,0.6,1.3,1,1.9c0.4,0.6,0.8,1.2,1.3,1.9l11.8,14.2c2.1,2.8,3.8,5.5,4.9,8
	c1.1,2.6,1.7,5.3,1.7,8.1c0,2.4-0.4,4.5-1.1,6.4c-0.7,1.9-1.8,3.5-3.2,4.8c-1.4,1.3-3,2.3-5,3.1c-2,0.7-4.2,1.1-6.6,1.1
	c-3,0-5.5-0.4-7.5-1.2c-2-0.8-3.6-1.9-4.8-3.2c-1.2-1.3-2-2.8-2.5-4.5c-0.5-1.7-0.7-3.4-0.7-5.2c0-1.4,0.1-2.8,0.3-4
	c0.2-1.2,0.4-2.5,0.8-3.9h7.9v3.2c0,1.8,0.1,3.4,0.3,4.8c0.2,1.4,0.6,2.5,1.1,3.5c0.5,1,1.2,1.7,2,2.1c0.8,0.5,1.9,0.7,3.1,0.7
	c1.9,0,3.4-0.5,4.4-1.6c1-1.1,1.5-2.6,1.5-4.6c0-1-0.1-2-0.2-2.9c-0.1-0.9-0.4-1.7-0.7-2.6c-0.4-0.9-0.8-1.8-1.4-2.7
	c-0.6-1-1.4-2-2.3-3.2L41.5,65.2c-1.9-2.4-3.3-4.8-4.3-7.2c-1-2.4-1.5-5-1.5-7.8c0-2.2,0.3-4.2,1-6.1c0.7-1.8,1.7-3.4,3-4.8
	c1.3-1.3,2.9-2.4,4.8-3.1c1.9-0.7,4.1-1.1,6.5-1.1c2.9,0,5.4,0.4,7.4,1.3c2,0.8,3.5,1.9,4.7,3.3c1.2,1.4,2,2.9,2.5,4.6
	s0.7,3.4,0.7,5.1c0,1.4-0.1,2.8-0.3,4c-0.2,1.2-0.5,2.5-0.8,4h-7.8V54c0-3.5-0.5-6.3-1.5-8.1c-1-1.9-2.7-2.8-5-2.8
	c-1.9,0-3.3,0.5-4.3,1.6c-0.9,1.1-1.4,2.5-1.4,4.2c0,0.9,0.1,1.8,0.2,2.5C45.6,52.1,45.8,52.8,46,53.4z"/>
</svg>
