<svg xmlns="http://www.w3.org/2000/svg" xmlns:xlink="http://www.w3.org/1999/xlink" preserveAspectRatio="xMidYMid" width="22" height="21.97" viewBox="0 0 22 21.97">
  <defs>
    <style>
      .cls-1 {
        fill: #b3b3b3;
        fill-rule: evenodd;
      }
    </style>
  </defs>
  <path d="M21.997,17.345 C22.043,17.702 21.934,18.013 21.671,18.277 L18.572,21.352 C18.433,21.508 18.250,21.640 18.025,21.749 C17.800,21.857 17.579,21.927 17.361,21.958 C17.346,21.958 17.299,21.962 17.222,21.970 C17.144,21.978 17.043,21.982 16.919,21.982 C16.624,21.982 16.146,21.931 15.486,21.830 C14.826,21.729 14.019,21.481 13.063,21.085 C12.108,20.689 11.025,20.094 9.814,19.302 C8.603,18.510 7.314,17.422 5.947,16.040 C4.860,14.968 3.959,13.943 3.245,12.965 C2.531,11.986 1.956,11.081 1.521,10.250 C1.086,9.419 0.760,8.666 0.543,7.990 C0.325,7.315 0.178,6.732 0.100,6.243 C0.023,5.754 -0.008,5.369 0.007,5.089 C0.023,4.810 0.030,4.655 0.030,4.623 C0.061,4.406 0.131,4.185 0.240,3.960 C0.349,3.734 0.481,3.552 0.636,3.412 L3.734,0.313 C3.952,0.096 4.200,-0.013 4.480,-0.013 C4.681,-0.013 4.860,0.045 5.015,0.162 C5.171,0.278 5.302,0.422 5.411,0.593 L7.904,5.322 C8.043,5.571 8.082,5.843 8.020,6.138 C7.958,6.433 7.826,6.681 7.624,6.883 L6.483,8.025 C6.452,8.056 6.425,8.107 6.401,8.177 C6.378,8.247 6.366,8.304 6.366,8.352 C6.428,8.678 6.568,9.051 6.786,9.470 C6.972,9.842 7.259,10.297 7.648,10.833 C8.036,11.369 8.587,11.986 9.302,12.685 C10.000,13.399 10.621,13.955 11.165,14.351 C11.708,14.747 12.163,15.038 12.528,15.225 C12.893,15.411 13.172,15.524 13.366,15.562 L13.657,15.621 C13.688,15.621 13.739,15.609 13.809,15.586 C13.879,15.562 13.929,15.535 13.960,15.504 L15.288,14.153 C15.568,13.904 15.894,13.780 16.266,13.780 C16.530,13.780 16.740,13.827 16.895,13.920 L16.919,13.920 L21.414,16.576 C21.740,16.778 21.935,17.035 21.997,17.345 Z" class="cls-1"/>
</svg>
