<svg xmlns="http://www.w3.org/2000/svg" xmlns:xlink="http://www.w3.org/1999/xlink" preserveAspectRatio="xMidYMid" width="23.66" height="29" viewBox="0 0 23.66 29">
  <defs>
    <style>
      .cls-1 {
        fill: #3e425e;
        fill-rule: evenodd;
      }
    </style>
  </defs>
  <path d="M20.025,21.212 L18.466,21.212 L18.474,20.287 C18.474,19.877 18.804,19.540 19.208,19.540 L19.307,19.540 C19.712,19.540 20.043,19.877 20.043,20.287 L20.025,21.212 ZM14.179,19.231 C13.784,19.231 13.460,19.502 13.460,19.834 L13.460,24.330 C13.460,24.662 13.784,24.933 14.179,24.933 C14.576,24.933 14.900,24.662 14.900,24.330 L14.900,19.834 C14.900,19.502 14.576,19.231 14.179,19.231 ZM23.672,16.716 L23.672,25.269 C23.672,27.321 21.930,29.000 19.801,29.000 L3.880,29.000 C1.750,29.000 0.008,27.321 0.008,25.269 L0.008,16.716 C0.008,14.664 1.750,12.985 3.880,12.985 L19.801,12.985 C21.930,12.985 23.672,14.664 23.672,16.716 ZM4.942,26.198 L4.941,17.188 L6.914,17.188 L6.914,15.854 L1.653,15.846 L1.653,17.158 L3.295,17.163 L3.295,26.198 L4.942,26.198 ZM10.858,18.530 L9.212,18.530 L9.212,23.341 C9.212,24.037 9.254,24.385 9.210,24.508 C9.076,24.881 8.475,25.277 8.240,24.548 C8.200,24.421 8.236,24.035 8.235,23.374 L8.229,18.530 L6.592,18.530 L6.597,23.298 C6.598,24.029 6.581,24.574 6.603,24.822 C6.643,25.259 6.629,25.769 7.026,26.060 C7.766,26.605 9.185,25.979 9.540,25.201 L9.537,26.194 L10.858,26.195 L10.858,18.530 L10.858,18.530 ZM16.122,24.040 L16.118,20.035 C16.117,18.509 14.999,17.595 13.482,18.830 L13.488,15.853 L11.844,15.855 L11.837,26.131 L13.188,26.111 L13.311,25.471 C15.039,27.089 16.125,25.980 16.122,24.040 ZM21.271,23.509 L20.038,23.515 C20.037,23.565 20.035,23.623 20.035,23.686 L20.035,24.389 C20.035,24.765 19.730,25.072 19.360,25.072 L19.119,25.072 C18.748,25.072 18.444,24.765 18.444,24.389 L18.444,24.311 L18.444,23.538 L18.444,22.540 L21.269,22.540 L21.269,21.454 C21.269,20.660 21.249,19.867 21.185,19.413 C20.983,17.978 19.010,17.750 18.014,18.485 C17.701,18.715 17.462,19.021 17.323,19.434 C17.183,19.847 17.114,20.411 17.114,21.127 L17.114,23.515 C17.114,27.484 21.835,26.923 21.271,23.509 ZM14.943,10.546 C15.027,10.757 15.159,10.928 15.338,11.056 C15.515,11.184 15.741,11.248 16.012,11.248 C16.249,11.248 16.459,11.182 16.642,11.047 C16.824,10.913 16.978,10.712 17.104,10.444 L17.073,11.104 L18.907,11.104 L18.907,3.138 L17.463,3.138 L17.463,9.338 C17.463,9.673 17.192,9.948 16.861,9.948 C16.532,9.948 16.260,9.673 16.260,9.338 L16.260,3.138 L14.753,3.138 L14.753,8.511 C14.753,9.195 14.766,9.651 14.785,9.882 C14.806,10.112 14.858,10.333 14.943,10.546 ZM9.385,6.047 C9.385,5.283 9.447,4.686 9.571,4.256 C9.696,3.826 9.920,3.481 10.245,3.222 C10.569,2.960 10.984,2.830 11.489,2.830 C11.913,2.830 12.277,2.915 12.580,3.081 C12.885,3.249 13.121,3.466 13.284,3.734 C13.451,4.004 13.563,4.281 13.624,4.564 C13.685,4.851 13.715,5.284 13.715,5.868 L13.715,7.883 C13.715,8.621 13.687,9.165 13.630,9.510 C13.574,9.857 13.455,10.177 13.269,10.478 C13.086,10.776 12.849,10.999 12.563,11.141 C12.273,11.284 11.942,11.354 11.568,11.354 C11.150,11.354 10.797,11.296 10.507,11.172 C10.216,11.050 9.991,10.866 9.831,10.620 C9.669,10.375 9.555,10.075 9.486,9.727 C9.417,9.379 9.384,8.855 9.384,8.157 L9.384,6.047 L9.385,6.047 ZM10.821,9.212 C10.821,9.663 11.150,10.031 11.550,10.031 C11.951,10.031 12.279,9.663 12.279,9.212 L12.279,4.971 C12.279,4.521 11.951,4.152 11.550,4.152 C11.150,4.152 10.821,4.521 10.821,4.971 L10.821,9.212 ZM5.745,11.353 L7.475,11.353 L7.477,5.243 L9.522,0.010 L7.629,0.010 L6.542,3.898 L5.440,-0.001 L3.567,-0.001 L5.742,5.247 L5.745,11.353 Z" class="cls-1"/>
</svg>
